<svg xmlns="http://www.w3.org/2000/svg" viewBox="700 950 1600 1100" width="200" height="300">
    <defs>
        <style>.cls-1{fill:#fff;}</style>
    </defs>
    <g id="Layer_2" data-name="Layer 2">
        <path
            d="M857.25,1127.17c210.8-26.66,239.44-120.64,257.23-95.9,197.75,275.07,245.33,328.59,365,357.59-11.87,6.8-.83,612.84-15.56,612.07-7-.37-63.86-570.08-71.42-571.93-85.79-21-255-179.91-293.66-238.64C1042.54,1135.36,1024.63,1281.91,857.25,1127.17Z" />
        <path
            d="M1518.39,1389.89c20.54,14.83,77.29,47.63,78.41,47.35,85.79-21,263.43-187.48,302.09-246.21,56.33-55,74.23,91.54,241.61-63.19-210.79-26.67-239.44-120.65-257.23-95.9-197.75,275.06-245.32,328.59-365,357.58Z" />
        <path class="cls-1"
            d="M2035.72,1420.5l-.29.75c-.1.25-.21.5-.32.74a85.72,85.72,0,0,1-53.44,48.81,84,84,0,0,1-15.84,3.34,87.56,87.56,0,0,0,23.36-6.51l.06,0A96.14,96.14,0,0,0,2035.72,1420.5Z" />
        <path
            d="M2036.2,1419.44c-.25.61-.5,1.21-.77,1.81-.1.25-.21.5-.32.74a89.08,89.08,0,0,1-45.86,45.61,96.14,96.14,0,0,0,46.47-47.1v0C2035.89,1420.14,2036,1419.79,2036.2,1419.44Z" />
        <path class="cls-1"
            d="M1103.32,1379.12c0,47.27-36.58,85.58-81.71,85.58a77.32,77.32,0,0,1-9.31-.56c-29.89-3.54-54.89-24-66.08-52a87.52,87.52,0,0,1-5.6-21.73c6.29,40.7,40,71.77,80.64,71.77,45.12,0,81.71-38.3,81.71-85.57a89.15,89.15,0,0,0-.71-11.27A89.17,89.17,0,0,1,1103.32,1379.12Z" />
        <path
            d="M1322.52,1440.54c-119-38.17-196.72-142.5-286.28-168.51l-.24-.06c-52.32-11.66-120.31,29.54-136.59,30.23-14.44.62-62.64-63-103.16-113.26l-6.09-7.52q-3.37-4.14-6.63-8.1a2.85,2.85,0,0,0-4.51.16l0,0h0c4.69,38.88,26.94,135,48.88,204.48.85,2.69,6.88,16.12,12.84,28.7a132,132,0,0,0,30.39,41.08c59.22,53.89,110.5,66.53,220.27,70.22,119.45,4.81,199.1-43.17,232.16-72.63A2.85,2.85,0,0,0,1322.52,1440.54Zm-85.89,2.59c-61.87,50.36-171.73,37.87-239.22,26.95C950.8,1462.52,886,1429,866,1341.31a2.82,2.82,0,0,1,2.2-3.36c27.43-5.57,62.74-20.62,97.43-31.38a2.85,2.85,0,0,1,2.73,4.86,87.07,87.07,0,0,0-28.78,65.19,89.56,89.56,0,0,0,1.06,13.8c6.29,40.7,40,71.77,80.64,71.77,45.12,0,81.71-38.3,81.71-85.57a89.15,89.15,0,0,0-.71-11.27,89.17,89.17,0,0,1,1.06,13.77c0,47.27-36.58,85.58-81.71,85.58a77.32,77.32,0,0,1-9.31-.56,80.31,80.31,0,0,0,11.46.81c46.84,0,84.81-39.77,84.81-88.83a91.45,91.45,0,0,0-12.94-47.17c40.35,34.18,86.84,87.71,140.25,109.33A2.85,2.85,0,0,1,1236.63,1443.13Z" />
        <path
            d="M1103.32,1379.12c0,47.27-36.58,85.58-81.71,85.58a77.32,77.32,0,0,1-9.31-.56c-29.61-4.18-54.37-24.38-66.08-52a91.92,91.92,0,0,1-7.27-36,90.34,90.34,0,0,1,30.14-67.89,2.77,2.77,0,0,1-.75,3.2,87.07,87.07,0,0,0-28.78,65.19,89.56,89.56,0,0,0,1.06,13.8c6.29,40.7,40,71.77,80.64,71.77,45.12,0,81.71-38.3,81.71-85.57a89.15,89.15,0,0,0-.71-11.27A89.17,89.17,0,0,1,1103.32,1379.12Z" />
        <path
            d="M1562.41,1179.13c0,37-28,67-62.6,67s-62.59-30-62.59-67,13.1-58,62.59-180.06C1546,1118.68,1562.41,1142.1,1562.41,1179.13Z" />
        <path
            d="M2181,1182.48a2.85,2.85,0,0,0-4.51-.16q-3.25,4-6.63,8.1l-6.09,7.52c-40.52,50.29-88.72,113.88-103.16,113.26-16.28-.69-84.27-41.89-136.59-30.23l-.24.06c-89.56,26-167.24,130.34-286.28,168.51a2.85,2.85,0,0,0-1,4.83c33.06,29.46,112.71,77.44,232.16,72.63,109.77-3.69,161.05-16.33,220.27-70.22a132,132,0,0,0,30.39-41.08c6-12.58,12-26,12.84-28.7,21.94-69.5,44.19-165.6,48.88-204.48h0Zm-87,167.83c-20,87.69-84.82,121.21-131.43,128.77-67.49,10.92-177.35,23.41-239.22-26.95a2.85,2.85,0,0,1,.75-4.85c51.2-20.73,96.05-70.78,135.22-105,1.69-1.47,3.36-2.92,5-4.33a91.45,91.45,0,0,0-12.94,47.17,92.58,92.58,0,0,0,3.61,25.71c7.88,27.34,28,49.12,53.7,58.34a98.63,98.63,0,0,0,72.93,1.63,84,84,0,0,1-15.84,3.34,87.56,87.56,0,0,0,23.36-6.51l.06,0a96.14,96.14,0,0,0,46.47-47.1v0c.16-.34.31-.69.47-1a93.67,93.67,0,0,0-10.81-93.46c24.06,8.49,47.19,17.06,66.43,21A2.82,2.82,0,0,1,2094,1350.31Z" />
        <path
            d="M1851.43,1385.12a92.58,92.58,0,0,0,3.61,25.71,93.72,93.72,0,0,1,4.3-68.55c1.69-1.47,3.36-2.92,5-4.33A91.45,91.45,0,0,0,1851.43,1385.12Z" />
        <path
            d="M1989.19,1467.63q-3.68,1.74-7.52,3.17a84,84,0,0,1-15.84,3.34A87.56,87.56,0,0,0,1989.19,1467.63Z" />
    </g>
</svg>